<svg xmlns="http://www.w3.org/2000/svg" xml:space="preserve" width="655.359" height="655.359" style="shape-rendering:geometricPrecision;text-rendering:geometricPrecision;image-rendering:optimizeQuality;fill-rule:evenodd;clip-rule:evenodd" viewBox="0 0 6.827 6.827"><defs><clipPath id="id0"><path d="M3.413 0a3.413 3.413 0 1 1 0 6.827 3.413 3.413 0 0 1 0-6.827z"/></clipPath><style>.fil1{fill:#ef6c00}.fil4{fill:#00a1a2;fill-rule:nonzero}</style></defs><g id="Layer_x0020_1"><path d="M3.413 0a3.413 3.413 0 1 1 0 6.827 3.413 3.413 0 0 1 0-6.827z" style="fill:#fb8c00"/><g style="clip-path:url(#id0)"><g id="_332350552"><path id="_3314253601" class="fil1" d="m4.898 3.469 3.787 3.786-.021.012-3.786-3.786z"/><path id="_331425000" class="fil1" d="m4.878 3.48 3.786 3.787-1.495.863-3.786-3.786z"/><path id="_331426224" class="fil1" d="m5.059 1.668 3.786 3.786v3.612L5.06 5.28z"/><path id="_331425936" class="fil1" d="m5.059 5.28 3.786 3.786h-.16L4.898 5.28z"/><path id="_331426320" class="fil1" d="M3.383 4.344 7.169 8.13l-1.495.863-3.786-3.786z"/><path id="_331426200" class="fil1" d="m1.888 5.207 3.786 3.786-.12.07-3.786-3.787z"/><path id="_332351440" class="fil1" d="m1.888 1.616 1.495.863 1.495.863.02.012V1.668h.161V5.28h-.16V3.469l-.021.012-1.495.863-1.495.863-.12.07V1.546z"/></g></g><path d="M3.413 0a3.413 3.413 0 1 1 0 6.827 3.413 3.413 0 0 1 0-6.827z" style="fill:none"/><path style="fill:#00c9ca;fill-rule:nonzero" d="M1.768 3.412V1.547l.12.07 1.495.862 1.495.863.115.067.005.003z"/><path class="fil4" d="m4.878 3.48-1.495.864-1.495.863-.12.07V3.411h3.23z"/><path class="fil4" d="M5.059 1.668V5.28h-.16V1.668z"/></g></svg>