<svg xmlns="http://www.w3.org/2000/svg" xml:space="preserve" width="655.359" height="655.359" style="shape-rendering:geometricPrecision;text-rendering:geometricPrecision;image-rendering:optimizeQuality;fill-rule:evenodd;clip-rule:evenodd" viewBox="0 0 6.827 6.827"><defs><clipPath id="id0"><path d="M3.413 0a3.413 3.413 0 1 1 0 6.827 3.413 3.413 0 0 1 0-6.827z"/></clipPath><style>.fil1{fill:#33691e}</style></defs><g id="Layer_x0020_1"><path d="M3.413 0a3.413 3.413 0 1 1 0 6.827 3.413 3.413 0 0 1 0-6.827z" style="fill:#558b2f"/><g style="clip-path:url(#id0)"><g id="_332350528"><path id="_3314245921" class="fil1" d="M5.03 3.413 8.816 7.2l-.12.069L4.91 3.483z"/><path id="_331424808" class="fil1" d="m4.91 3.483 3.786 3.786-1.496.864-3.786-3.786z"/><path id="_331425168" class="fil1" d="M3.414 4.347 7.2 8.133l-1.496.864L1.917 5.21z"/><path id="_331425216" class="fil1" d="m1.917 5.21 3.787 3.787-.121.07L1.797 5.28z"/><path id="_332350768" class="fil1" d="m1.917 1.616 1.497.864 1.496.864.115.067.005.002-.12.07-1.496.864-1.497.863-.12.07V1.546z"/></g></g><path d="M3.413 0a3.413 3.413 0 1 1 0 6.827 3.413 3.413 0 0 1 0-6.827z" style="fill:none"/><path style="fill:#00c9ca;fill-rule:nonzero" d="M1.797 3.413V1.545l.12.07 1.497.864 1.496.864.115.067.005.002z"/><path style="fill:#00a1a2;fill-rule:nonzero" d="m4.91 3.483-1.496.864-1.497.863-.12.07V3.413H5.03z"/></g></svg>