<svg xmlns="http://www.w3.org/2000/svg" xml:space="preserve" width="655.359" height="655.359" style="shape-rendering:geometricPrecision;text-rendering:geometricPrecision;image-rendering:optimizeQuality;fill-rule:evenodd;clip-rule:evenodd" viewBox="0 0 6.827 6.827"><defs><clipPath id="id0"><path d="M3.413 0a3.413 3.413 0 1 1 0 6.827 3.413 3.413 0 0 1 0-6.827z"/></clipPath><style>.fil1{fill:#1a237e}.fil4{fill:#00a1a2;fill-rule:nonzero}</style></defs><g id="Layer_x0020_1"><path d="M3.413 0a3.413 3.413 0 1 1 0 6.827 3.413 3.413 0 0 1 0-6.827z" style="fill:#303f9f"/><g style="clip-path:url(#id0)"><g id="_332350216"><path id="_3314231041" class="fil1" d="m5.059 3.33 3.786 3.786v.001L5.06 3.331z"/><path id="_331423152" class="fil1" d="m1.928 1.587 3.787 3.787V7.06L1.928 3.274z"/><path id="_331424136" class="fil1" d="m5.059 5.057 3.786 3.786v.14L5.06 5.195z"/><path id="_331424112" class="fil1" d="m5.059 5.196 3.786 3.786-.12-.07-3.786-3.786z"/><path id="_331424160" class="fil1" d="m4.939 5.127 3.786 3.786L7.23 8.05 3.444 4.263z"/><path id="_331424640" class="fil1" d="M3.444 4.263 7.23 8.05l-1.495-.863L1.95 3.4z"/><path id="_331424544" class="fil1" d="m1.949 3.4 3.786 3.787-.02-.012-3.787-3.787z"/><path id="_331424352" class="fil1" d="m1.928 3.388 3.787 3.787v1.81L1.928 5.2z"/><path id="_331424496" class="fil1" d="m1.928 5.2 3.787 3.786h-.161L1.768 5.2z"/><path id="_331424472" class="fil1" d="m5.059 3.331 3.786 3.786v1.726L5.06 5.057z"/><path id="_331424064" class="fil1" d="m5.059 1.466 3.786 3.787v.138L5.06 1.605z"/><path id="_331424784" class="fil1" d="m5.059 1.605 3.786 3.786v1.725L5.06 3.33z"/><path id="_332350288" class="fil1" d="M5.059 3.33V5.196l-.12-.07-1.495-.863L1.949 3.4l-.02-.012V5.2h-.161V1.587h.16v1.687l.021-.012 1.495-.863 1.495-.863.12-.07v.14z"/></g></g><path d="M3.413 0a3.413 3.413 0 1 1 0 6.827 3.413 3.413 0 0 1 0-6.827z" style="fill:none"/><path style="fill:#00c9ca;fill-rule:nonzero" d="M5.059 3.331V1.466l-.12.07-1.495.863-1.495.863-.116.067-.004.002z"/><path class="fil4" d="m1.949 3.4 1.495.863 1.495.864.12.069V3.331h-3.23z"/><path class="fil4" d="M1.768 1.587V5.2h.16V1.587z"/></g></svg>